# Blender v2.80 (sub 75) OBJ File: 'QuickMockup.blend'
# www.blender.org
o Clipboard_Plane.001
v -0.425000 0.000000 0.550000
v 0.425000 0.000000 0.550000
v -0.425000 0.000000 -0.550000
v 0.425000 0.000000 -0.550000
v -0.425000 0.017634 -0.550000
v -0.425000 0.017634 0.550000
v 0.425000 0.017634 0.550000
v 0.425000 0.017634 -0.550000
v -0.236316 0.000000 0.550000
v 0.236316 0.000000 0.550000
v 0.236316 0.000000 -0.550000
v -0.236316 0.000000 -0.550000
v -0.236316 0.017634 0.550000
v 0.236316 0.017634 0.550000
v 0.236316 0.017634 -0.550000
v -0.236316 0.017634 -0.550000
v -0.236316 0.000000 0.621121
v 0.236316 0.000000 0.621121
v -0.236316 0.017634 0.621121
v 0.236316 0.017634 0.621121
v -0.236316 0.058108 0.550000
v 0.236316 0.058108 0.550000
v -0.236316 0.058108 0.621121
v 0.236316 0.058108 0.621121
v -0.236316 0.077429 0.550000
v 0.236316 0.077429 0.550000
v -0.236316 0.077429 0.621121
v 0.236316 0.077429 0.621121
v -0.236316 0.024045 0.476476
v 0.236316 0.024045 0.476476
v -0.236316 0.024045 0.457088
v 0.236316 0.024045 0.457088
v -0.236316 0.058108 0.505465
v -0.236316 0.029144 0.476476
v -0.236316 0.056690 0.496507
v -0.236316 0.052576 0.488426
v -0.236316 0.046168 0.482013
v -0.236316 0.038094 0.477895
v 0.236316 0.029144 0.476476
v 0.236316 0.058108 0.505465
v 0.236316 0.038094 0.477895
v 0.236316 0.046168 0.482013
v 0.236316 0.052576 0.488426
v 0.236316 0.056690 0.496507
v -0.236316 0.048465 0.457088
v -0.236316 0.077429 0.486077
v -0.236316 0.057415 0.458507
v -0.236316 0.065489 0.462624
v -0.236316 0.071897 0.469038
v -0.236316 0.076011 0.477119
v 0.236316 0.077429 0.486077
v 0.236316 0.048465 0.457088
v 0.236316 0.076011 0.477119
v 0.236316 0.071897 0.469038
v 0.236316 0.065489 0.462624
v 0.236316 0.057415 0.458507
vn 0.0000 -1.0000 0.0000
vn 0.0000 1.0000 0.0000
vn -1.0000 0.0000 0.0000
vn 0.0000 0.0000 -1.0000
vn 0.0000 0.0000 1.0000
vn 1.0000 0.0000 0.0000
vn 0.0000 0.0785 -0.9969
vn 0.0000 0.9969 -0.0784
vn 0.0000 -0.9969 0.0784
vn 0.0000 -0.0785 0.9969
vn 0.0000 -0.3093 0.9510
vn 0.0000 -0.5881 0.8088
vn 0.0000 -0.8092 0.5875
vn 0.0000 -0.9511 0.3088
vn 0.0000 0.9511 -0.3088
vn 0.0000 0.8092 -0.5875
vn 0.0000 0.5881 -0.8088
vn 0.0000 0.3092 -0.9510
s 1
f 10//1 11//1 4//1 2//1
s 2
f 14//2 7//2 8//2 15//2
s 3
f 3//3 1//3 6//3 5//3
s 4
f 12//4 3//4 5//4 16//4
s 5
f 10//5 2//5 7//5 14//5
s 6
f 2//6 4//6 8//6 7//6
s 7
f 1//5 9//5 13//5 6//5
s 8
f 13//3 9//3 17//3 19//3
s 9
f 4//4 11//4 15//4 8//4
s 10
f 11//4 12//4 16//4 15//4
s 11
f 6//2 13//2 16//2 5//2
s 12
f 13//2 14//2 15//2 16//2
s 13
f 1//1 3//1 12//1 9//1
s 14
f 9//1 12//1 11//1 10//1
s 15
f 17//5 18//5 20//5 19//5
s 16
f 10//6 14//6 20//6 18//6
s 17
f 13//3 19//3 23//3 21//3
s 18
f 9//1 10//1 18//1 17//1
s 19
f 21//3 23//3 27//3 25//3
s 20
f 19//5 20//5 24//5 23//5
s 21
f 20//6 14//6 22//6 24//6
s 22
f 14//4 13//4 21//4 22//4
s 23
f 26//2 25//2 27//2 28//2
s 24
f 24//6 22//6 26//6 28//6
s 25
f 23//5 24//5 28//5 27//5
s 26
f 52//6 39//6 30//6 32//6
s 27
f 34//3 45//3 31//3 29//3
s 28
f 45//7 52//7 32//4 31//4
s 29
f 26//6 22//6 40//6 51//6
s 30
f 30//1 29//1 31//1 32//1
s 31
f 25//2 26//2 51//8 46//8
s 32
f 21//3 25//3 46//3 33//3
s 33
f 22//1 21//1 33//9 40//9
s 34
f 34//10 39//10 41//11 38//11
s 35
f 38//11 41//11 42//12 37//12
s 36
f 37//12 42//12 43//13 36//13
s 37
f 36//13 43//13 44//14 35//14
s 38
f 35//14 44//14 40//9 33//9
s 39
f 46//8 51//8 53//15 50//15
s 40
f 50//15 53//15 54//16 49//16
s 41
f 49//16 54//16 55//17 48//17
s 42
f 48//17 55//17 56//18 47//18
s 43
f 47//18 56//18 52//7 45//7
s 44
f 45//3 34//3 38//3 47//3
s 45
f 47//3 38//3 37//3 48//3
s 46
f 48//3 37//3 36//3 49//3
s 47
f 49//3 36//3 35//3 50//3
s 48
f 50//3 35//3 33//3 46//3
s 49
f 51//6 40//6 44//6 53//6
s 50
f 53//6 44//6 43//6 54//6
s 51
f 54//6 43//6 42//6 55//6
s 52
f 55//6 42//6 41//6 56//6
s 53
f 56//6 41//6 39//6 52//6
s 54
f 39//10 34//10 29//5 30//5
